<svg width="34" height="34" viewBox="0 0 34 34" fill="none" xmlns="http://www.w3.org/2000/svg">
<path d="M7.08333 29.75C6.68194 29.75 6.34572 29.614 6.07467 29.342C5.80361 29.07 5.66761 28.7338 5.66667 28.3333V26.9167H4.25V21.25C4.25 20.8486 4.386 20.5124 4.658 20.2413C4.93 19.9703 5.26622 19.8343 5.66667 19.8333H7.08333V9.91667C7.08333 8.35833 7.63819 7.02431 8.74792 5.91458C9.85764 4.80486 11.1917 4.25 12.75 4.25C14.3083 4.25 15.6424 4.80486 16.7521 5.91458C17.8618 7.02431 18.4167 8.35833 18.4167 9.91667V24.0833C18.4167 24.8625 18.6943 25.5297 19.2497 26.0851C19.805 26.6404 20.4718 26.9176 21.25 26.9167C22.0282 26.9157 22.6955 26.6385 23.2517 26.0851C23.808 25.5316 24.0852 24.8644 24.0833 24.0833V14.1667H22.6667C22.2653 14.1667 21.9291 14.0307 21.658 13.7587C21.3869 13.4867 21.2509 13.1504 21.25 12.75V7.08333H22.6667V5.66667C22.6667 5.26528 22.8027 4.92906 23.0747 4.658C23.3467 4.38694 23.6829 4.25094 24.0833 4.25H26.9167C27.3181 4.25 27.6547 4.386 27.9267 4.658C28.1987 4.93 28.3343 5.26622 28.3333 5.66667V7.08333H29.75V12.75C29.75 13.1514 29.614 13.4881 29.342 13.7601C29.07 14.0321 28.7338 14.1676 28.3333 14.1667H26.9167V24.0833C26.9167 25.6417 26.3618 26.9757 25.2521 28.0854C24.1424 29.1951 22.8083 29.75 21.25 29.75C19.6917 29.75 18.3576 29.1951 17.2479 28.0854C16.1382 26.9757 15.5833 25.6417 15.5833 24.0833V9.91667C15.5833 9.1375 15.3061 8.47072 14.7517 7.91633C14.1974 7.36194 13.5301 7.08428 12.75 7.08333C11.9699 7.08239 11.3031 7.36006 10.7497 7.91633C10.1962 8.47261 9.91856 9.13939 9.91667 9.91667V19.8333H11.3333C11.7347 19.8333 12.0714 19.9693 12.3434 20.2413C12.6154 20.5133 12.7509 20.8496 12.75 21.25V26.9167H11.3333V28.3333C11.3333 28.7347 11.1973 29.0714 10.9253 29.3434C10.6533 29.6154 10.3171 29.7509 9.91667 29.75H7.08333Z" fill="black"/>
</svg>
