<svg width="42" height="34" viewBox="0 0 42 34" fill="none" xmlns="http://www.w3.org/2000/svg">
<path d="M25.2 6.375V21.25H4.2V6.375H25.2ZM4.2 2.125C1.88344 2.125 0 4.03086 0 6.375V21.25C0 23.5941 1.88344 25.5 4.2 25.5H11.8978L11.1956 27.625H6.3C5.13844 27.625 4.2 28.5746 4.2 29.75C4.2 30.9254 5.13844 31.875 6.3 31.875H23.1C24.2616 31.875 25.2 30.9254 25.2 29.75C25.2 28.5746 24.2616 27.625 23.1 27.625H18.1978L17.4956 25.5H25.2C27.5166 25.5 29.4 23.5941 29.4 21.25V6.375C29.4 4.03086 27.5166 2.125 25.2 2.125H4.2ZM34.65 2.125C32.9109 2.125 31.5 3.55273 31.5 5.3125V28.6875C31.5 30.4473 32.9109 31.875 34.65 31.875H38.85C40.5891 31.875 42 30.4473 42 28.6875V5.3125C42 3.55273 40.5891 2.125 38.85 2.125H34.65ZM35.7 6.375H37.8C38.3775 6.375 38.85 6.85313 38.85 7.4375C38.85 8.02187 38.3775 8.5 37.8 8.5H35.7C35.1225 8.5 34.65 8.02187 34.65 7.4375C34.65 6.85313 35.1225 6.375 35.7 6.375ZM34.65 11.6875C34.65 11.1031 35.1225 10.625 35.7 10.625H37.8C38.3775 10.625 38.85 11.1031 38.85 11.6875C38.85 12.2719 38.3775 12.75 37.8 12.75H35.7C35.1225 12.75 34.65 12.2719 34.65 11.6875ZM36.75 22.3125C37.307 22.3125 37.8411 22.5364 38.2349 22.9349C38.6287 23.3334 38.85 23.8739 38.85 24.4375C38.85 25.0011 38.6287 25.5416 38.2349 25.9401C37.8411 26.3386 37.307 26.5625 36.75 26.5625C36.193 26.5625 35.6589 26.3386 35.2651 25.9401C34.8712 25.5416 34.65 25.0011 34.65 24.4375C34.65 23.8739 34.8712 23.3334 35.2651 22.9349C35.6589 22.5364 36.193 22.3125 36.75 22.3125Z" fill="black"/>
</svg>
