<svg width="34" height="34" viewBox="0 0 34 34" fill="none" xmlns="http://www.w3.org/2000/svg">
<path d="M7.97936 27.625C7.46268 27.6256 6.9482 27.5578 6.44936 27.4231C4.9522 26.9962 3.68201 25.9994 2.91131 24.6467C2.1406 23.294 1.93078 21.6931 2.32686 20.1875L4.80249 10.795C4.99529 10.0349 5.33804 9.3209 5.8106 8.69507C6.28317 8.06924 6.87603 7.54414 7.55436 7.15063C8.21484 6.76807 8.94467 6.52038 9.70156 6.42189C10.4584 6.3234 11.2274 6.37608 11.9637 6.57688C12.7465 6.79425 13.4756 7.17188 14.1048 7.68583C14.734 8.19978 15.2495 8.83884 15.6187 9.5625H18.3812C18.7494 8.83807 19.2646 8.19839 19.8939 7.68431C20.5233 7.17023 21.2529 6.79305 22.0362 6.57688C22.7726 6.37608 23.5415 6.3234 24.2984 6.42189C25.0553 6.52038 25.7851 6.76807 26.4456 7.15063C27.1206 7.54313 27.7113 8.06535 28.1836 8.68718C28.6559 9.30901 29.0005 10.0182 29.1975 10.7738L31.6731 20.1875C32.0751 21.6975 31.867 23.3051 31.0936 24.6629C30.3203 26.0207 29.0438 27.0198 27.54 27.4444C26.8036 27.6452 26.0347 27.6978 25.2778 27.5994C24.5209 27.5009 23.7911 27.2532 23.1306 26.8706C22.4545 26.4795 21.8629 25.9577 21.3905 25.3357C20.918 24.7137 20.5741 24.0038 20.3787 23.2475L20.1875 22.3125H13.8125L13.5681 23.2263C13.3728 23.9825 13.0288 24.6924 12.5564 25.3144C12.0839 25.9365 11.4924 26.4583 10.8162 26.8494C9.95293 27.3473 8.97591 27.6144 7.97936 27.625ZM10.4444 8.5C9.80325 8.50266 9.17371 8.67103 8.61686 8.98875C7.74439 9.50064 7.11022 10.3373 6.85311 11.3156L4.37749 20.7081C4.11844 21.6758 4.24933 22.7065 4.74205 23.5786C5.23477 24.4508 6.04998 25.0949 7.01249 25.3725C7.47734 25.4993 7.96272 25.5327 8.44054 25.4707C8.91837 25.4086 9.37915 25.2525 9.79624 25.0113C10.2305 24.7605 10.6102 24.4255 10.9131 24.0259C11.216 23.6263 11.4359 23.1702 11.56 22.6844L12.2187 20.1875H21.7812L22.4294 22.6844C22.5556 23.1693 22.7764 23.6245 23.0791 24.0238C23.3818 24.4231 23.7604 24.7587 24.1931 25.0113C24.6123 25.2523 25.0748 25.4082 25.5543 25.4702C26.0338 25.5322 26.5208 25.499 26.9875 25.3725C27.9512 25.0975 28.7674 24.4533 29.2588 23.5799C29.7502 22.7066 29.8771 21.6745 29.6119 20.7081L27.1362 11.3156C27.0129 10.8309 26.7944 10.3756 26.4934 9.97609C26.1924 9.57662 25.815 9.241 25.3831 8.98875C24.964 8.74774 24.5014 8.59177 24.0219 8.52979C23.5424 8.4678 23.0554 8.501 22.5887 8.6275C22.0116 8.79201 21.4821 9.09183 21.0442 9.50207C20.6062 9.91231 20.2724 10.4211 20.0706 10.9863L19.8156 11.6875H14.1844L13.9294 10.9863C13.7257 10.4204 13.3901 9.9112 12.9503 9.50098C12.5105 9.09076 11.9793 8.79132 11.4006 8.6275C11.0888 8.54366 10.7673 8.5008 10.4444 8.5Z" fill="black"/>
<path d="M10.625 17C10.2047 17 9.79387 16.8754 9.44441 16.6419C9.09496 16.4084 8.82259 16.0765 8.66176 15.6882C8.50092 15.2999 8.45884 14.8726 8.54083 14.4604C8.62283 14.0482 8.82521 13.6696 9.1224 13.3724C9.41959 13.0752 9.79822 12.8728 10.2104 12.7908C10.6226 12.7088 11.0499 12.7509 11.4382 12.9118C11.8265 13.0726 12.1584 13.345 12.3919 13.6944C12.6254 14.0439 12.75 14.4547 12.75 14.875C12.75 15.4386 12.5261 15.9791 12.1276 16.3776C11.7291 16.7761 11.1886 17 10.625 17Z" fill="black"/>
<path d="M23.375 13.8125C23.9618 13.8125 24.4375 13.3368 24.4375 12.75C24.4375 12.1632 23.9618 11.6875 23.375 11.6875C22.7882 11.6875 22.3125 12.1632 22.3125 12.75C22.3125 13.3368 22.7882 13.8125 23.375 13.8125Z" fill="black"/>
<path d="M23.375 18.0625C23.9618 18.0625 24.4375 17.5868 24.4375 17C24.4375 16.4132 23.9618 15.9375 23.375 15.9375C22.7882 15.9375 22.3125 16.4132 22.3125 17C22.3125 17.5868 22.7882 18.0625 23.375 18.0625Z" fill="black"/>
<path d="M21.25 15.9375C21.8368 15.9375 22.3125 15.4618 22.3125 14.875C22.3125 14.2882 21.8368 13.8125 21.25 13.8125C20.6632 13.8125 20.1875 14.2882 20.1875 14.875C20.1875 15.4618 20.6632 15.9375 21.25 15.9375Z" fill="black"/>
<path d="M25.5 15.9375C26.0868 15.9375 26.5625 15.4618 26.5625 14.875C26.5625 14.2882 26.0868 13.8125 25.5 13.8125C24.9132 13.8125 24.4375 14.2882 24.4375 14.875C24.4375 15.4618 24.9132 15.9375 25.5 15.9375Z" fill="black"/>
</svg>
