<svg width="34" height="34" viewBox="0 0 34 34" fill="none" xmlns="http://www.w3.org/2000/svg">
<path d="M5.66668 17H9.91668C10.6681 17 11.3888 17.2985 11.9201 17.8299C12.4515 18.3612 12.75 19.0819 12.75 19.8333V26.9167C12.75 27.6681 12.4515 28.3888 11.9201 28.9201C11.3888 29.4515 10.6681 29.75 9.91668 29.75H5.66668C4.91523 29.75 4.19456 29.4515 3.66321 28.9201C3.13185 28.3888 2.83334 27.6681 2.83334 26.9167V17C2.83334 9.17575 9.17576 2.83333 17 2.83333C24.8243 2.83333 31.1667 9.17575 31.1667 17V26.9167C31.1667 27.6681 30.8682 28.3888 30.3368 28.9201C29.8055 29.4515 29.0848 29.75 28.3333 29.75H24.0833C23.3319 29.75 22.6112 29.4515 22.0799 28.9201C21.5485 28.3888 21.25 27.6681 21.25 26.9167V19.8333C21.25 19.0819 21.5485 18.3612 22.0799 17.8299C22.6112 17.2985 23.3319 17 24.0833 17H28.3333C28.3333 13.9942 27.1393 11.1115 25.0139 8.98612C22.8885 6.86071 20.0058 5.66667 17 5.66667C13.9942 5.66667 11.1115 6.86071 8.98613 8.98612C6.86072 11.1115 5.66668 13.9942 5.66668 17Z" fill="black"/>
</svg>
