<svg width="34" height="34" viewBox="0 0 34 34" fill="none" xmlns="http://www.w3.org/2000/svg">
<path fill-rule="evenodd" clip-rule="evenodd" d="M16.9207 1.77083H17.0793C19.6832 1.77083 21.7458 1.77083 23.3594 1.98758C25.0197 2.21142 26.3642 2.68175 27.4252 3.74142C28.4849 4.8025 28.9552 6.14692 29.1791 7.80725C29.3958 9.42225 29.3958 11.4835 29.3958 14.0873V19.9127C29.3958 22.5165 29.3958 24.5792 29.1791 26.1928C28.9552 27.8531 28.4849 29.1975 27.4252 30.2586C26.3642 31.3182 25.0197 31.7886 23.3594 32.0124C21.7444 32.2292 19.6832 32.2292 17.0793 32.2292H16.9207C14.3168 32.2292 12.2542 32.2292 10.6406 32.0124C8.98025 31.7886 7.63583 31.3182 6.57475 30.2586C5.51508 29.1975 5.04475 27.8531 4.82091 26.1928C4.60416 24.5778 4.60416 22.5165 4.60416 19.9127V14.0873C4.60416 11.4835 4.60416 9.42083 4.82091 7.80725C5.04475 6.14692 5.51508 4.8025 6.57475 3.74142C7.63583 2.68175 8.98025 2.21142 10.6406 1.98758C12.2556 1.77083 14.3168 1.77083 16.9207 1.77083ZM10.9225 4.09417C9.49733 4.28542 8.67566 4.64525 8.075 5.2445C7.47716 5.84375 7.11733 6.66542 6.92608 8.09058C6.73058 9.54692 6.72775 11.4651 6.72775 14.1667V19.8333C6.72775 22.5349 6.73058 24.4545 6.92608 25.9108C7.11733 27.3346 7.47716 28.1562 8.07641 28.7555C8.67566 29.3548 9.49733 29.7146 10.9225 29.9058C12.3788 30.1013 14.297 30.1042 16.9986 30.1042C19.7002 30.1042 21.6197 30.1013 23.0761 29.9058C24.4998 29.7146 25.3215 29.3548 25.9207 28.7555C26.52 28.1562 26.8798 27.3346 27.0711 25.9094C27.2666 24.4545 27.2694 22.5349 27.2694 19.8333V14.1667C27.2694 11.4651 27.2666 9.54692 27.0711 8.08917C26.8798 6.66542 26.52 5.84375 25.9207 5.2445C25.3215 4.64525 24.4998 4.28542 23.0747 4.09417C21.6183 3.89867 19.7002 3.89583 16.9986 3.89583C14.297 3.89583 12.3802 3.89867 10.9225 4.09417ZM11.6875 26.9167C11.6875 26.6349 11.7994 26.3646 11.9987 26.1654C12.198 25.9661 12.4682 25.8542 12.75 25.8542H21.25C21.5318 25.8542 21.802 25.9661 22.0013 26.1654C22.2006 26.3646 22.3125 26.6349 22.3125 26.9167C22.3125 27.1985 22.2006 27.4687 22.0013 27.668C21.802 27.8672 21.5318 27.9792 21.25 27.9792H12.75C12.4682 27.9792 12.198 27.8672 11.9987 27.668C11.7994 27.4687 11.6875 27.1985 11.6875 26.9167Z" fill="black"/>
</svg>
