<svg width="34" height="34" viewBox="0 0 34 34" fill="none" xmlns="http://www.w3.org/2000/svg">
<path d="M17 4.25L2.83331 17H7.08331V28.3333H26.9166V17H31.1666L17 4.25ZM17 12.0417C20.315 12.0417 23.3183 13.3592 25.5 15.4983L23.8 17.17C21.9867 15.3879 19.5424 14.3949 17 14.4075C14.3366 14.4075 11.9283 15.4558 10.2 17.17L8.49998 15.4983C10.7695 13.2747 13.8227 12.033 17 12.0417ZM17 16.7592C18.9833 16.7592 20.7825 17.5525 22.1 18.8417L20.4 20.4992C19.4922 19.6107 18.2702 19.1168 17 19.125C15.6683 19.125 14.4641 19.6492 13.6 20.4992L11.9 18.8417C13.2608 17.5051 15.0926 16.7572 17 16.7592ZM17 21.4908C18.3316 21.4908 19.4083 22.5392 19.4083 23.8425C19.4083 25.1458 18.3316 26.2083 17 26.2083C15.6683 26.2083 14.5916 25.1458 14.5916 23.8425C14.5916 22.5392 15.6683 21.4908 17 21.4908Z" fill="black"/>
</svg>
