<svg width="34" height="34" viewBox="0 0 34 34" fill="none" xmlns="http://www.w3.org/2000/svg">
<path d="M22.865 3.1875C21.6065 3.187 20.3658 3.4854 19.2451 4.05815C18.1244 4.63089 17.1558 5.46159 16.419 6.48188C15.6821 7.50216 15.1981 8.68286 15.0067 9.92677C14.8154 11.1707 14.9222 12.4423 15.3184 13.6368L3.92417 25.0339C3.45322 25.5052 3.18866 26.1442 3.18866 26.8104C3.18866 27.4767 3.45322 28.1157 3.92417 28.5869L5.41451 30.0772C5.64778 30.3108 5.92482 30.4961 6.22977 30.6226C6.53472 30.749 6.8616 30.8141 7.19171 30.8141C7.52183 30.8141 7.84871 30.749 8.15366 30.6226C8.45861 30.4961 8.73564 30.3108 8.96892 30.0772L20.3646 18.6802C21.7249 19.132 23.1821 19.2074 24.5818 18.8986C25.9815 18.5898 27.2717 17.9082 28.3156 16.926C29.3596 15.9437 30.1184 14.6974 30.5118 13.3191C30.9053 11.9408 30.9186 10.4817 30.5504 9.09641C30.1736 7.67408 28.5076 7.53241 27.6718 8.36825L25.2308 10.8077C25.098 10.9457 24.939 11.0557 24.7632 11.1315C24.5873 11.2073 24.3981 11.2472 24.2066 11.249C24.0152 11.2508 23.8252 11.2145 23.648 11.142C23.4707 11.0696 23.3097 10.9625 23.1743 10.8271C23.0389 10.6917 22.9318 10.5307 22.8594 10.3534C22.787 10.1762 22.7506 9.98626 22.7524 9.79478C22.7542 9.60331 22.7941 9.41411 22.8699 9.23825C22.9457 9.0624 23.0557 8.90341 23.1937 8.77058L25.6332 6.32966C26.469 5.49383 26.3273 3.82783 24.9036 3.451C24.2388 3.27525 23.554 3.18668 22.8664 3.1875" fill="black"/>
</svg>
