<svg width="34" height="34" viewBox="0 0 34 34" fill="none" xmlns="http://www.w3.org/2000/svg">
<path d="M31.1667 22.6667C31.1667 26.673 31.1667 28.6776 29.9214 29.9214C28.6776 31.1667 26.673 31.1667 22.6667 31.1667H11.3333C7.32699 31.1667 5.32241 31.1667 4.07858 29.9214C2.83333 28.6776 2.83333 26.673 2.83333 22.6667V17C2.83333 12.9937 2.83333 10.9891 4.07858 9.74525C5.32241 8.5 7.32699 8.5 11.3333 8.5H22.6667C26.673 8.5 28.6776 8.5 29.9214 9.74525C31.1667 10.9891 31.1667 12.9937 31.1667 17V22.6667Z" stroke="black" stroke-width="1.5"/>
<path opacity="0.5" d="M12.75 2.83333L17 7.79167L21.25 2.83333" stroke="black" stroke-width="1.5" stroke-linecap="round"/>
<path d="M22.6667 8.5V31.1667" stroke="black" stroke-width="1.5" stroke-linecap="round"/>
<path opacity="0.5" d="M28.3333 22.6667C28.3333 22.2909 28.1841 21.9306 27.9184 21.6649C27.6527 21.3993 27.2924 21.25 26.9167 21.25C26.5409 21.25 26.1806 21.3993 25.9149 21.6649C25.6493 21.9306 25.5 22.2909 25.5 22.6667C25.5 23.0424 25.6493 23.4027 25.9149 23.6684C26.1806 23.9341 26.5409 24.0833 26.9167 24.0833C27.2924 24.0833 27.6527 23.9341 27.9184 23.6684C28.1841 23.4027 28.3333 23.0424 28.3333 22.6667ZM28.3333 17C28.3333 16.6243 28.1841 16.2639 27.9184 15.9983C27.6527 15.7326 27.2924 15.5833 26.9167 15.5833C26.5409 15.5833 26.1806 15.7326 25.9149 15.9983C25.6493 16.2639 25.5 16.6243 25.5 17C25.5 17.3757 25.6493 17.7361 25.9149 18.0017C26.1806 18.2674 26.5409 18.4167 26.9167 18.4167C27.2924 18.4167 27.6527 18.2674 27.9184 18.0017C28.1841 17.7361 28.3333 17.3757 28.3333 17Z" fill="black"/>
</svg>
