<svg width="42" height="41" viewBox="0 0 42 41" fill="none" xmlns="http://www.w3.org/2000/svg">
<g filter="url(#filter0_d_17_406)">
<path d="M14 0.25H28C33.3333 0.25 37.6667 4.475 37.6667 9.675V23.325C37.6667 25.8247 36.6482 28.222 34.8354 29.9895C33.0225 31.757 30.5638 32.75 28 32.75H14C8.66668 32.75 4.33334 28.525 4.33334 23.325V9.675C4.33334 7.17533 5.35179 4.77805 7.16464 3.01052C8.9775 1.24299 11.4363 0.25 14 0.25ZM13.6667 3.5C12.0754 3.5 10.5493 4.11634 9.42404 5.21343C8.29882 6.31051 7.66668 7.79848 7.66668 9.35V23.65C7.66668 26.8837 10.35 29.5 13.6667 29.5H28.3333C29.9246 29.5 31.4508 28.8837 32.576 27.7866C33.7012 26.6895 34.3333 25.2015 34.3333 23.65V9.35C34.3333 6.11625 31.65 3.5 28.3333 3.5H13.6667ZM29.75 5.9375C30.3025 5.9375 30.8324 6.15151 31.2232 6.53244C31.6139 6.91337 31.8333 7.43003 31.8333 7.96875C31.8333 8.50747 31.6139 9.02413 31.2232 9.40506C30.8324 9.78599 30.3025 10 29.75 10C29.1975 10 28.6676 9.78599 28.2769 9.40506C27.8862 9.02413 27.6667 8.50747 27.6667 7.96875C27.6667 7.43003 27.8862 6.91337 28.2769 6.53244C28.6676 6.15151 29.1975 5.9375 29.75 5.9375ZM21 8.375C23.2101 8.375 25.3298 9.23102 26.8926 10.7548C28.4554 12.2785 29.3333 14.3451 29.3333 16.5C29.3333 18.6549 28.4554 20.7215 26.8926 22.2452C25.3298 23.769 23.2101 24.625 21 24.625C18.7899 24.625 16.6703 23.769 15.1075 22.2452C13.5447 20.7215 12.6667 18.6549 12.6667 16.5C12.6667 14.3451 13.5447 12.2785 15.1075 10.7548C16.6703 9.23102 18.7899 8.375 21 8.375ZM21 11.625C19.6739 11.625 18.4022 12.1386 17.4645 13.0529C16.5268 13.9671 16 15.2071 16 16.5C16 17.7929 16.5268 19.0329 17.4645 19.9471C18.4022 20.8614 19.6739 21.375 21 21.375C22.3261 21.375 23.5979 20.8614 24.5355 19.9471C25.4732 19.0329 26 17.7929 26 16.5C26 15.2071 25.4732 13.9671 24.5355 13.0529C23.5979 12.1386 22.3261 11.625 21 11.625Z" fill="black"/>
</g>
<defs>
<filter id="filter0_d_17_406" x="0.333344" y="0.25" width="41.3333" height="40.5" filterUnits="userSpaceOnUse" color-interpolation-filters="sRGB">
<feFlood flood-opacity="0" result="BackgroundImageFix"/>
<feColorMatrix in="SourceAlpha" type="matrix" values="0 0 0 0 0 0 0 0 0 0 0 0 0 0 0 0 0 0 127 0" result="hardAlpha"/>
<feOffset dy="4"/>
<feGaussianBlur stdDeviation="2"/>
<feComposite in2="hardAlpha" operator="out"/>
<feColorMatrix type="matrix" values="0 0 0 0 0 0 0 0 0 0 0 0 0 0 0 0 0 0 0.25 0"/>
<feBlend mode="normal" in2="BackgroundImageFix" result="effect1_dropShadow_17_406"/>
<feBlend mode="normal" in="SourceGraphic" in2="effect1_dropShadow_17_406" result="shape"/>
</filter>
</defs>
</svg>
